<?xml version="1.0" encoding="UTF-8" standalone="no"?>
<!DOCTYPE svg PUBLIC "-//W3C//DTD SVG 1.1//EN" "http://www.w3.org/Graphics/SVG/1.1/DTD/svg11.dtd">
<!-- Generated by Microsoft Visio, SVG Export NodeCommunication.svg Communication Architecture -->
<svg xmlns="http://www.w3.org/2000/svg" xmlns:xlink="http://www.w3.org/1999/xlink" xmlns:ev="http://www.w3.org/2001/xml-events"
		xmlns:v="http://schemas.microsoft.com/visio/2003/SVGExtensions/" width="16.0354in" height="11.6929in"
		viewBox="0 0 1154.55 841.89" xml:space="preserve" color-interpolation-filters="sRGB" class="st29">
	<v:documentProperties v:langID="1033" v:viewMarkup="false">
		<v:userDefs>
			<v:ud v:nameU="msvNoAutoConnect" v:val="VT0(1):26"/>
		</v:userDefs>
	</v:documentProperties>

	<style type="text/css">
	<![CDATA[
		.st1 {stroke:#c00000;stroke-linecap:round;stroke-linejoin:round;stroke-width:2}
		.st2 {fill:#ffffff;stroke:#0070c0;stroke-linecap:round;stroke-linejoin:round;stroke-width:0.75}
		.st3 {stroke:#0070c0;stroke-linecap:round;stroke-linejoin:round;stroke-width:1.25}
		.st4 {stroke:#00b050;stroke-linecap:round;stroke-linejoin:round;stroke-width:1.25}
		.st5 {fill:#ffffff;stroke:#00b050;stroke-linecap:round;stroke-linejoin:round;stroke-width:0.75}
		.st6 {fill:none;stroke:none;stroke-linecap:round;stroke-linejoin:round;stroke-width:0.75}
		.st7 {fill:#000000;font-family:Arial;font-size:1.00001em;font-weight:bold}
		.st8 {fill:#000000;font-family:Arial;font-size:0.8em}
		.st9 {font-size:1em;font-style:italic}
		.st10 {fill:#7f7f7f;font-family:Arial;font-size:1.00001em}
		.st11 {fill:#fee599;stroke:#000000;stroke-linecap:round;stroke-linejoin:round;stroke-width:2}
		.st12 {marker-start:url(#mrkr4-51);stroke:#000000;stroke-linecap:round;stroke-linejoin:round;stroke-width:0.239976}
		.st13 {fill:#000000;fill-opacity:1;stroke:#000000;stroke-opacity:1;stroke-width:0.086948582161584}
		.st14 {fill:#000000;font-family:Arial;font-size:0.916672em;font-style:italic}
		.st15 {stroke:#0070c0;stroke-linecap:round;stroke-linejoin:round;stroke-width:0.75}
		.st16 {stroke:#00b050;stroke-dasharray:8.75,6.25;stroke-linecap:round;stroke-linejoin:round;stroke-width:1.25}
		.st17 {marker-end:url(#mrkr4-169);stroke:#000000;stroke-linecap:round;stroke-linejoin:round;stroke-width:0.239976}
		.st18 {stroke:#000000;stroke-linecap:round;stroke-linejoin:round;stroke-width:0.24}
		.st19 {font-size:1em}
		.st20 {fill:none;stroke:#000000;stroke-linecap:round;stroke-linejoin:round;stroke-width:0.75}
		.st21 {fill:#000000;font-family:Arial;font-size:0.916672em}
		.st22 {stroke:#002060;stroke-linecap:round;stroke-linejoin:round;stroke-width:2}
		.st23 {marker-end:url(#mrkr4-313);stroke:#002060;stroke-linecap:round;stroke-linejoin:round;stroke-width:0.75}
		.st24 {fill:#002060;fill-opacity:1;stroke:#002060;stroke-opacity:1;stroke-width:0.22935779816514}
		.st25 {fill:#ffffff;stroke:#a5a5a5;stroke-linecap:round;stroke-linejoin:round;stroke-width:3.12}
		.st26 {fill:#000000;font-family:Arial;font-size:1.33333em;font-weight:bold}
		.st27 {marker-end:url(#mrkr4-337);marker-start:url(#mrkr4-335);stroke:#7f7f7f;stroke-linecap:round;stroke-linejoin:round;stroke-width:2}
		.st28 {fill:#7f7f7f;fill-opacity:1;stroke:#7f7f7f;stroke-opacity:1;stroke-width:0.44247787610619}
		.st29 {fill:none;fill-rule:evenodd;font-size:12px;overflow:visible;stroke-linecap:square;stroke-miterlimit:3}
	]]>
	</style>

	<defs id="Markers">
		<g id="lend4">
			<path d="M 2 1 L 0 0 L 2 -1 L 2 1 " style="stroke:none"/>
		</g>
		<marker id="mrkr4-51" class="st13" v:arrowType="4" v:arrowSize="2" v:setback="21.502" refX="21.50195019502" orient="auto"
				markerUnits="strokeWidth" overflow="visible">
			<use xlink:href="#lend4" transform="scale(11.501050105011) "/>
		</marker>
		<marker id="mrkr4-169" class="st13" v:arrowType="4" v:arrowSize="2" v:setback="23.0021" refX="-23.002100210021"
				orient="auto" markerUnits="strokeWidth" overflow="visible">
			<use xlink:href="#lend4" transform="scale(-11.501050105011,-11.501050105011) "/>
		</marker>
		<marker id="mrkr4-313" class="st24" v:arrowType="4" v:arrowSize="2" v:setback="8.72" refX="-8.72" orient="auto"
				markerUnits="strokeWidth" overflow="visible">
			<use xlink:href="#lend4" transform="scale(-4.36,-4.36) "/>
		</marker>
		<marker id="mrkr4-335" class="st28" v:arrowType="4" v:arrowSize="2" v:setback="4.34" refX="4.34" orient="auto"
				markerUnits="strokeWidth" overflow="visible">
			<use xlink:href="#lend4" transform="scale(2.26) "/>
		</marker>
		<marker id="mrkr4-337" class="st28" v:arrowType="4" v:arrowSize="2" v:setback="4.52" refX="-4.52" orient="auto"
				markerUnits="strokeWidth" overflow="visible">
			<use xlink:href="#lend4" transform="scale(-2.26,-2.26) "/>
		</marker>
	</defs>
	<g v:mID="0" v:index="1" v:groupContext="foregroundPage">
		<title>Communication Architecture</title>
		<v:pageProperties v:drawingScale="1" v:pageScale="1" v:drawingUnits="19" v:shadowOffsetX="9" v:shadowOffsetY="-9"/>
		<v:layer v:name="Connector" v:index="0"/>
		<g id="shape6-1" v:mID="6" v:groupContext="shape" transform="translate(916.89,85.8898) rotate(90)">
			<title>Sheet.6</title>
			<path d="M0 841.89 L612 841.89" class="st1"/>
		</g>
		<g id="shape16-4" v:mID="16" v:groupContext="shape" transform="translate(356.937,-573.21)">
			<title>Sheet.16</title>
			<ellipse cx="5.625" cy="836.265" rx="5.625" ry="5.625" class="st2"/>
		</g>
		<g id="shape20-6" v:mID="20" v:groupContext="shape" transform="translate(76.9375,-578.835)">
			<title>Sheet.20</title>
			<path d="M0 841.89 L280 841.89" class="st3"/>
		</g>
		<g id="shape21-9" v:mID="21" v:groupContext="shape" transform="translate(968.327,263.055) rotate(90)">
			<title>Sheet.21</title>
			<path d="M0 841.89 L55.52 841.89" class="st4"/>
		</g>
		<g id="shape23-12" v:mID="23" v:groupContext="shape" transform="translate(193.937,-517.687)">
			<title>Sheet.23</title>
			<ellipse cx="5.625" cy="836.265" rx="5.625" ry="5.625" class="st5"/>
		</g>
		<g id="shape24-14" v:mID="24" v:groupContext="shape" transform="translate(126.437,-523.312)">
			<title>Sheet.24</title>
			<path d="M0 841.89 L67.5 841.89" class="st4"/>
		</g>
		<g id="shape25-17" v:mID="25" v:groupContext="shape" transform="translate(0,-754)">
			<title>Sheet.25</title>
			<desc>NATS Message Bus</desc>
			<v:textBlock v:margins="rect(4,4,4,4)"/>
			<v:textRect cx="76" cy="831.89" width="152" height="20"/>
			<rect x="0" y="821.89" width="152" height="20" class="st6"/>
			<text x="29.04" y="835.49" class="st7" v:langID="1033"><v:paragraph v:horizAlign="1"/><v:tabList/>NATS Message Bus</text>		</g>
		<g id="shape26-20" v:mID="26" v:groupContext="shape" transform="translate(968.058,304.61) rotate(88.9403)">
			<title>Sheet.26</title>
			<path d="M0 841.89 L56.24 841.89" class="st4"/>
		</g>
		<g id="shape27-23" v:mID="27" v:groupContext="shape" transform="translate(194.812,-459.187)">
			<title>Sheet.27</title>
			<ellipse cx="5.625" cy="836.265" rx="5.625" ry="5.625" class="st5"/>
		</g>
		<g id="shape28-25" v:mID="28" v:groupContext="shape" transform="translate(127.353,-465.483)">
			<title>Sheet.28</title>
			<path d="M0 841.89 L67.5 841.89" class="st4"/>
		</g>
		<g id="shape29-28" v:mID="29" v:groupContext="shape" transform="translate(85.5,-577.125)">
			<title>Sheet.29</title>
			<desc>Subject 2</desc>
			<v:textBlock v:margins="rect(4,4,4,4)"/>
			<v:textRect cx="29.3486" cy="831.89" width="58.7" height="20"/>
			<rect x="0" y="821.89" width="58.6972" height="20" class="st6"/>
			<text x="4" y="835.49" class="st8" v:langID="1033"><v:paragraph/><v:tabList/>Subject <tspan class="st9">2</tspan></text>		</g>
		<g id="shape31-32" v:mID="31" v:groupContext="shape" transform="translate(134.75,-520.312)">
			<title>Sheet.31</title>
			<desc>Queue</desc>
			<v:textBlock v:margins="rect(4,4,4,4)"/>
			<v:textRect cx="23.625" cy="831.89" width="47.25" height="20"/>
			<rect x="0" y="821.89" width="47.25" height="20" class="st6"/>
			<text x="7.31" y="835.49" class="st8" v:langID="1033"><v:paragraph v:horizAlign="1"/><v:tabList/>Queue</text>		</g>
		<g id="shape33-35" v:mID="33" v:groupContext="shape" transform="translate(134.75,-462)">
			<title>Sheet.33</title>
			<desc>Queue</desc>
			<v:textBlock v:margins="rect(4,4,4,4)"/>
			<v:textRect cx="23.625" cy="831.89" width="47.25" height="20"/>
			<rect x="0" y="821.89" width="47.25" height="20" class="st6"/>
			<text x="7.31" y="835.49" class="st10" v:langID="1033"><v:paragraph v:horizAlign="1"/><v:tabList/>Queue</text>		</g>
		<g id="shape41-38" v:mID="41" v:groupContext="shape" transform="translate(274.938,-515.437)">
			<title>Sheet.41</title>
			<desc>Function 1</desc>
			<v:textBlock v:margins="rect(4,4,4,4)"/>
			<v:textRect cx="31.5" cy="832.89" width="63" height="18"/>
			<rect x="0" y="823.89" width="63" height="18" class="st11"/>
			<text x="5.8" y="836.49" class="st8" v:langID="1033"><v:paragraph v:horizAlign="1"/><v:tabList/>Function <tspan
						class="st9">1</tspan></text>		</g>
		<g id="shape42-42" v:mID="42" v:groupContext="shape" transform="translate(274.938,-491.812)">
			<title>Sheet.42</title>
			<desc>Function 1</desc>
			<v:textBlock v:margins="rect(4,4,4,4)"/>
			<v:textRect cx="31.5" cy="832.89" width="63" height="18"/>
			<rect x="0" y="823.89" width="63" height="18" class="st11"/>
			<text x="5.8" y="836.49" class="st8" v:langID="1033"><v:paragraph v:horizAlign="1"/><v:tabList/>Function <tspan
						class="st9">1</tspan></text>		</g>
		<g id="shape44-46" v:mID="44" v:groupContext="shape" v:layerMember="0" transform="translate(205.187,-514.312)">
			<title>Dynamic connector.44</title>
			<path d="M5.16 832.89 L5.52 832.89 L69.75 832.89" class="st12"/>
		</g>
		<g id="shape45-52" v:mID="45" v:groupContext="shape" v:layerMember="0" transform="translate(199.562,-518.25)">
			<title>Dynamic connector.45</title>
			<path d="M0 847.61 L0 847.97 L0 859.33 L75.38 859.33" class="st12"/>
		</g>
		<g id="shape48-57" v:mID="48" v:groupContext="shape" transform="translate(206.875,-518.187)">
			<title>Sheet.48</title>
			<desc>Subscribe</desc>
			<v:textBlock v:margins="rect(4,4,4,4)"/>
			<v:textRect cx="31.5" cy="831.89" width="63" height="20"/>
			<rect x="0" y="821.89" width="63" height="20" class="st6"/>
			<text x="10.33" y="835.19" class="st14" v:langID="1033"><v:paragraph v:horizAlign="1"/><v:tabList/>Subscribe</text>		</g>
		<g id="shape49-60" v:mID="49" v:groupContext="shape" transform="translate(206.875,-496.312)">
			<title>Sheet.49</title>
			<desc>Subscribe</desc>
			<v:textBlock v:margins="rect(4,4,4,4)"/>
			<v:textRect cx="31.5" cy="831.89" width="63" height="20"/>
			<rect x="0" y="821.89" width="63" height="20" class="st6"/>
			<text x="10.33" y="835.19" class="st14" v:langID="1033"><v:paragraph v:horizAlign="1"/><v:tabList/>Subscribe</text>		</g>
		<g id="shape61-63" v:mID="61" v:groupContext="shape" transform="translate(356.937,-434.835)">
			<title>Sheet.61</title>
			<ellipse cx="5.625" cy="836.265" rx="5.625" ry="5.625" class="st2"/>
		</g>
		<g id="shape62-65" v:mID="62" v:groupContext="shape" transform="translate(75.625,-440.46)">
			<title>Sheet.62</title>
			<path d="M0 841.89 L280 841.89" class="st15"/>
		</g>
		<g id="shape63-68" v:mID="63" v:groupContext="shape" transform="translate(967.015,401.43) rotate(90)">
			<title>Sheet.63</title>
			<path d="M0 841.89 L55.52 841.89" class="st4"/>
		</g>
		<g id="shape64-71" v:mID="64" v:groupContext="shape" transform="translate(192.625,-379.312)">
			<title>Sheet.64</title>
			<ellipse cx="5.625" cy="836.265" rx="5.625" ry="5.625" class="st5"/>
		</g>
		<g id="shape65-73" v:mID="65" v:groupContext="shape" transform="translate(125.125,-384.937)">
			<title>Sheet.65</title>
			<path d="M0 841.89 L67.5 841.89" class="st4"/>
		</g>
		<g id="shape69-76" v:mID="69" v:groupContext="shape" transform="translate(83.9903,-437.085)">
			<title>Sheet.69</title>
			<desc>Subject 3</desc>
			<v:textBlock v:margins="rect(4,4,4,4)"/>
			<v:textRect cx="29.3486" cy="831.89" width="58.7" height="20"/>
			<rect x="0" y="821.89" width="58.6972" height="20" class="st6"/>
			<text x="4" y="835.49" class="st8" v:langID="1033"><v:paragraph/><v:tabList/>Subject <tspan class="st9">3</tspan></text>		</g>
		<g id="shape72-80" v:mID="72" v:groupContext="shape" transform="translate(273.625,-400.687)">
			<title>Sheet.72</title>
			<desc>Function 2</desc>
			<v:textBlock v:margins="rect(4,4,4,4)"/>
			<v:textRect cx="31.5" cy="832.89" width="63" height="18"/>
			<rect x="0" y="823.89" width="63" height="18" class="st11"/>
			<text x="5.8" y="836.49" class="st8" v:langID="1033"><v:paragraph v:horizAlign="1"/><v:tabList/>Function <tspan
						class="st9">2</tspan></text>		</g>
		<g id="shape73-84" v:mID="73" v:groupContext="shape" transform="translate(273.625,-377.062)">
			<title>Sheet.73</title>
			<desc>Function 2</desc>
			<v:textBlock v:margins="rect(4,4,4,4)"/>
			<v:textRect cx="31.5" cy="832.89" width="63" height="18"/>
			<rect x="0" y="823.89" width="63" height="18" class="st11"/>
			<text x="5.8" y="836.49" class="st8" v:langID="1033"><v:paragraph v:horizAlign="1"/><v:tabList/>Function <tspan
						class="st9">2</tspan></text>		</g>
		<g id="shape74-88" v:mID="74" v:groupContext="shape" transform="translate(273.625,-353.437)">
			<title>Sheet.74</title>
			<desc>Function 2</desc>
			<v:textBlock v:margins="rect(4,4,4,4)"/>
			<v:textRect cx="31.5" cy="832.89" width="63" height="18"/>
			<rect x="0" y="823.89" width="63" height="18" class="st11"/>
			<text x="5.8" y="836.49" class="st8" v:langID="1033"><v:paragraph v:horizAlign="1"/><v:tabList/>Function <tspan
						class="st9">2</tspan></text>		</g>
		<g id="shape75-92" v:mID="75" v:groupContext="shape" v:layerMember="0" transform="translate(198.25,-390.562)">
			<title>Dynamic connector.75</title>
			<path d="M0 836.73 L0 836.37 L0 822.76 L75.38 822.76" class="st12"/>
		</g>
		<g id="shape76-97" v:mID="76" v:groupContext="shape" v:layerMember="0" transform="translate(203.875,-375.937)">
			<title>Dynamic connector.76</title>
			<path d="M5.16 832.89 L5.52 832.89 L69.75 832.89" class="st12"/>
		</g>
		<g id="shape77-102" v:mID="77" v:groupContext="shape" v:layerMember="0" transform="translate(198.25,-379.875)">
			<title>Dynamic connector.77</title>
			<path d="M0 847.61 L0 847.97 L0 859.33 L75.38 859.33" class="st12"/>
		</g>
		<g id="shape78-107" v:mID="78" v:groupContext="shape" transform="translate(205.562,-404.062)">
			<title>Sheet.78</title>
			<desc>Subscribe</desc>
			<v:textBlock v:margins="rect(4,4,4,4)"/>
			<v:textRect cx="31.5" cy="831.89" width="63" height="20"/>
			<rect x="0" y="821.89" width="63" height="20" class="st6"/>
			<text x="10.33" y="835.19" class="st14" v:langID="1033"><v:paragraph v:horizAlign="1"/><v:tabList/>Subscribe</text>		</g>
		<g id="shape79-110" v:mID="79" v:groupContext="shape" transform="translate(205.562,-379.812)">
			<title>Sheet.79</title>
			<desc>Subscribe</desc>
			<v:textBlock v:margins="rect(4,4,4,4)"/>
			<v:textRect cx="31.5" cy="831.89" width="63" height="20"/>
			<rect x="0" y="821.89" width="63" height="20" class="st6"/>
			<text x="10.33" y="835.19" class="st14" v:langID="1033"><v:paragraph v:horizAlign="1"/><v:tabList/>Subscribe</text>		</g>
		<g id="shape80-113" v:mID="80" v:groupContext="shape" transform="translate(205.562,-357.937)">
			<title>Sheet.80</title>
			<desc>Subscribe</desc>
			<v:textBlock v:margins="rect(4,4,4,4)"/>
			<v:textRect cx="31.5" cy="831.89" width="63" height="20"/>
			<rect x="0" y="821.89" width="63" height="20" class="st6"/>
			<text x="10.33" y="835.19" class="st14" v:langID="1033"><v:paragraph v:horizAlign="1"/><v:tabList/>Subscribe</text>		</g>
		<g id="shape82-116" v:mID="82" v:groupContext="shape" transform="translate(320.938,-454.812)">
			<title>Sheet.82</title>
			<desc>Publish</desc>
			<v:textBlock v:margins="rect(4,4,4,4)"/>
			<v:textRect cx="23.625" cy="831.89" width="47.25" height="20"/>
			<rect x="0" y="821.89" width="47.25" height="20" class="st6"/>
			<text x="7.64" y="835.19" class="st14" v:langID="1033"><v:paragraph v:horizAlign="1"/><v:tabList/>Publish</text>		</g>
		<g id="shape83-119" v:mID="83" v:groupContext="shape" transform="translate(355.625,-291.562)">
			<title>Sheet.83</title>
			<ellipse cx="5.625" cy="836.265" rx="5.625" ry="5.625" class="st2"/>
		</g>
		<g id="shape84-121" v:mID="84" v:groupContext="shape" transform="translate(75.625,-297.187)">
			<title>Sheet.84</title>
			<path d="M0 841.89 L280 841.89" class="st15"/>
		</g>
		<g id="shape85-124" v:mID="85" v:groupContext="shape" transform="translate(967.015,545.43) rotate(90)">
			<title>Sheet.85</title>
			<path d="M0 841.89 L55.52 841.89" class="st4"/>
		</g>
		<g id="shape86-127" v:mID="86" v:groupContext="shape" transform="translate(192.625,-235.312)">
			<title>Sheet.86</title>
			<ellipse cx="5.625" cy="836.265" rx="5.625" ry="5.625" class="st5"/>
		</g>
		<g id="shape87-129" v:mID="87" v:groupContext="shape" transform="translate(125.125,-240.937)">
			<title>Sheet.87</title>
			<path d="M0 841.89 L67.5 841.89" class="st4"/>
		</g>
		<g id="shape88-132" v:mID="88" v:groupContext="shape" transform="translate(966.746,586.985) rotate(88.9403)">
			<title>Sheet.88</title>
			<path d="M0 841.89 L56.24 841.89" class="st16"/>
		</g>
		<g id="shape89-135" v:mID="89" v:groupContext="shape" transform="translate(193.5,-176.812)">
			<title>Sheet.89</title>
			<ellipse cx="5.625" cy="836.265" rx="5.625" ry="5.625" class="st5"/>
		</g>
		<g id="shape90-137" v:mID="90" v:groupContext="shape" transform="translate(126.04,-183.108)">
			<title>Sheet.90</title>
			<path d="M0 841.89 L67.5 841.89" class="st16"/>
		</g>
		<g id="shape94-140" v:mID="94" v:groupContext="shape" transform="translate(273.625,-233.062)">
			<title>Sheet.94</title>
			<desc>Function 3</desc>
			<v:textBlock v:margins="rect(4,4,4,4)"/>
			<v:textRect cx="31.5" cy="832.89" width="63" height="18"/>
			<rect x="0" y="823.89" width="63" height="18" class="st11"/>
			<text x="5.8" y="836.49" class="st8" v:langID="1033"><v:paragraph v:horizAlign="1"/><v:tabList/>Function <tspan
						class="st9">3</tspan></text>		</g>
		<g id="shape97-144" v:mID="97" v:groupContext="shape" v:layerMember="0" transform="translate(203.875,-231.937)">
			<title>Dynamic connector.97</title>
			<path d="M5.16 832.89 L5.52 832.89 L69.75 832.89" class="st12"/>
		</g>
		<g id="shape100-149" v:mID="100" v:groupContext="shape" transform="translate(205.562,-235.812)">
			<title>Sheet.100</title>
			<desc>Subscribe</desc>
			<v:textBlock v:margins="rect(4,4,4,4)"/>
			<v:textRect cx="31.5" cy="831.89" width="63" height="20"/>
			<rect x="0" y="821.89" width="63" height="20" class="st6"/>
			<text x="10.33" y="835.19" class="st14" v:langID="1033"><v:paragraph v:horizAlign="1"/><v:tabList/>Subscribe</text>		</g>
		<g id="shape104-152" v:mID="104" v:groupContext="shape" transform="translate(428.937,-593.062)">
			<title>Sheet.104</title>
			<desc>REST API 1</desc>
			<v:textBlock v:margins="rect(4,4,4,4)"/>
			<v:textRect cx="31.5" cy="832.89" width="63" height="18"/>
			<rect x="0" y="823.89" width="63" height="18" class="st11"/>
			<text x="5.8" y="836.49" class="st8" v:langID="1033"><v:paragraph v:horizAlign="1"/><v:tabList/>REST API <tspan
						class="st9">1</tspan></text>		</g>
		<g id="shape105-156" v:mID="105" v:groupContext="shape" transform="translate(428.937,-569.437)">
			<title>Sheet.105</title>
			<desc>REST API 1</desc>
			<v:textBlock v:margins="rect(4,4,4,4)"/>
			<v:textRect cx="31.5" cy="832.89" width="63" height="18"/>
			<rect x="0" y="823.89" width="63" height="18" class="st11"/>
			<text x="5.8" y="836.49" class="st8" v:langID="1033"><v:paragraph v:horizAlign="1"/><v:tabList/>REST API <tspan
						class="st9">1</tspan></text>		</g>
		<g id="shape106-160" v:mID="106" v:groupContext="shape" transform="translate(428.937,-545.812)">
			<title>Sheet.106</title>
			<desc>REST API 1</desc>
			<v:textBlock v:margins="rect(4,4,4,4)"/>
			<v:textRect cx="31.5" cy="832.89" width="63" height="18"/>
			<rect x="0" y="823.89" width="63" height="18" class="st11"/>
			<text x="5.8" y="836.49" class="st8" v:langID="1033"><v:paragraph v:horizAlign="1"/><v:tabList/>REST API <tspan
						class="st9">1</tspan></text>		</g>
		<g id="shape109-164" v:mID="109" v:groupContext="shape" v:layerMember="0" transform="translate(337.938,-500.812)">
			<title>Dynamic connector.109</title>
			<path d="M0 841.89 L24.62 841.89 L24.62 891.1" class="st17"/>
		</g>
		<g id="shape112-170" v:mID="112" v:groupContext="shape" v:layerMember="0" transform="translate(428.937,-602.261)">
			<title>Dynamic connector.112</title>
			<path d="M0 842.09 L-66.37 842.09 L-66.37 854.17" class="st17"/>
		</g>
		<g id="shape113-175" v:mID="113" v:groupContext="shape" v:layerMember="0" transform="translate(428.937,-569.835)">
			<title>Dynamic connector.113</title>
			<path d="M0 832.89 L-55.23 832.89" class="st17"/>
		</g>
		<g id="shape114-180" v:mID="114" v:groupContext="shape" v:layerMember="0" transform="translate(428.937,-554.812)">
			<title>Dynamic connector.114</title>
			<path d="M0 841.89 L-66.37 841.89 L-66.37 829.01" class="st17"/>
		</g>
		<g id="shape115-185" v:mID="115" v:groupContext="shape" transform="translate(427.625,-311.812)">
			<title>Sheet.115</title>
			<desc>REST API 2</desc>
			<v:textBlock v:margins="rect(4,4,4,4)"/>
			<v:textRect cx="31.5" cy="832.89" width="63" height="18"/>
			<rect x="0" y="823.89" width="63" height="18" class="st11"/>
			<text x="5.8" y="836.49" class="st8" v:langID="1033"><v:paragraph v:horizAlign="1"/><v:tabList/>REST API <tspan
						class="st9">2</tspan></text>		</g>
		<g id="shape116-189" v:mID="116" v:groupContext="shape" transform="translate(427.625,-288.187)">
			<title>Sheet.116</title>
			<desc>REST API 2</desc>
			<v:textBlock v:margins="rect(4,4,4,4)"/>
			<v:textRect cx="31.5" cy="832.89" width="63" height="18"/>
			<rect x="0" y="823.89" width="63" height="18" class="st11"/>
			<text x="5.8" y="836.49" class="st8" v:langID="1033"><v:paragraph v:horizAlign="1"/><v:tabList/>REST API <tspan
						class="st9">2</tspan></text>		</g>
		<g id="shape118-193" v:mID="118" v:groupContext="shape" v:layerMember="0" transform="translate(427.625,-320.812)">
			<title>Dynamic connector.118</title>
			<path d="M0 841.89 L-66.37 841.89 L-66.37 854.37" class="st17"/>
		</g>
		<g id="shape119-198" v:mID="119" v:groupContext="shape" v:layerMember="0" transform="translate(427.625,-288.187)">
			<title>Dynamic connector.119</title>
			<path d="M0 832.89 L-55.23 832.89" class="st17"/>
		</g>
		<g id="shape137-203" v:mID="137" v:groupContext="shape" transform="translate(134,-381.812)">
			<title>Sheet.137</title>
			<desc>Queue</desc>
			<v:textBlock v:margins="rect(4,4,4,4)"/>
			<v:textRect cx="23.625" cy="831.89" width="47.25" height="20"/>
			<rect x="0" y="821.89" width="47.25" height="20" class="st6"/>
			<text x="7.31" y="835.49" class="st8" v:langID="1033"><v:paragraph v:horizAlign="1"/><v:tabList/>Queue</text>		</g>
		<g id="shape139-206" v:mID="139" v:groupContext="shape" transform="translate(130.625,-237.812)">
			<title>Sheet.139</title>
			<desc>Queue</desc>
			<v:textBlock v:margins="rect(4,4,4,4)"/>
			<v:textRect cx="23.625" cy="831.89" width="47.25" height="20"/>
			<rect x="0" y="821.89" width="47.25" height="20" class="st6"/>
			<text x="7.31" y="835.49" class="st8" v:langID="1033"><v:paragraph v:horizAlign="1"/><v:tabList/>Queue</text>		</g>
		<g id="shape140-209" v:mID="140" v:groupContext="shape" transform="translate(130.625,-179.5)">
			<title>Sheet.140</title>
			<desc>Queue</desc>
			<v:textBlock v:margins="rect(4,4,4,4)"/>
			<v:textRect cx="23.625" cy="831.89" width="47.25" height="20"/>
			<rect x="0" y="821.89" width="47.25" height="20" class="st6"/>
			<text x="7.31" y="835.49" class="st10" v:langID="1033"><v:paragraph v:horizAlign="1"/><v:tabList/>Queue</text>		</g>
		<g id="shape145-212" v:mID="145" v:groupContext="shape" transform="translate(373.625,-314.662)">
			<title>Sheet.145</title>
			<desc>Publish</desc>
			<v:textBlock v:margins="rect(4,4,4,4)"/>
			<v:textRect cx="23.625" cy="831.89" width="47.25" height="20"/>
			<rect x="0" y="821.89" width="47.25" height="20" class="st6"/>
			<text x="7.64" y="835.19" class="st14" v:langID="1033"><v:paragraph v:horizAlign="1"/><v:tabList/>Publish</text>		</g>
		<g id="shape146-215" v:mID="146" v:groupContext="shape" transform="translate(373.625,-291.206)">
			<title>Sheet.146</title>
			<desc>Publish</desc>
			<v:textBlock v:margins="rect(4,4,4,4)"/>
			<v:textRect cx="23.625" cy="831.89" width="47.25" height="20"/>
			<rect x="0" y="821.89" width="47.25" height="20" class="st6"/>
			<text x="7.64" y="835.19" class="st14" v:langID="1033"><v:paragraph v:horizAlign="1"/><v:tabList/>Publish</text>		</g>
		<g id="shape148-218" v:mID="148" v:groupContext="shape" transform="translate(83.9903,-294.713)">
			<title>Sheet.148</title>
			<desc>Subject 4</desc>
			<v:textBlock v:margins="rect(4,4,4,4)"/>
			<v:textRect cx="29.3486" cy="831.89" width="58.7" height="20"/>
			<rect x="0" y="821.89" width="58.6972" height="20" class="st6"/>
			<text x="4" y="835.49" class="st8" v:langID="1033"><v:paragraph/><v:tabList/>Subject <tspan class="st9">4</tspan></text>		</g>
		<g id="shape151-222" v:mID="151" v:groupContext="shape" transform="translate(-481.89,422.077) rotate(-90) scale(-1,1)">
			<title>Side brace</title>
			<desc>Load balanced By NATS queue</desc>
			<v:userDefs>
				<v:ud v:nameU="TxtW" v:val="VT0(0.55555555555556):29"/>
				<v:ud v:nameU="TxtA" v:val="VT0(1.5707963267949):32"/>
				<v:ud v:nameU="TxtAState" v:val="VT0(0):26"/>
				<v:ud v:nameU="TxtWState" v:val="VT0(0):26"/>
				<v:ud v:nameU="MaxRadius" v:val="VT0(0.25):1"/>
				<v:ud v:nameU="PosCH1" v:prompt="Constrains X position of Control Handle #1" v:val="VT0(0):26"/>
				<v:ud v:nameU="PosCH2" v:prompt="Constrains Y position of Control Handle #2" v:val="VT0(0):26"/>
				<v:ud v:nameU="Scale" v:val="VT0(1):26"/>
				<v:ud v:nameU="AntiScale" v:val="VT0(1):26"/>
				<v:ud v:nameU="visVersion" v:val="VT0(15):26"/>
				<v:ud v:nameU="TxtW" v:prompt="" v:val="VT0(1.6666666666667):29"/>
				<v:ud v:nameU="TxtWState" v:prompt="" v:val="VT0(2):26"/>
				<v:ud v:nameU="MaxRadius" v:prompt="" v:val="VT0(0.23046875337604):1"/>
			</v:userDefs>
			<v:textBlock v:margins="rect(4,4,4,4)"/>
			<v:textRect cx="36" cy="910.89" width="120.01" height="36.8038" transform="rotate(90)"/>
			<path d="M0 823.89 L0 832.89 A8.99985 8.99985 -180 0 0 9 841.89 L27 841.89 A8.99985 8.99985 0 0 1 36 850.89 A8.99985
						 8.99985 0 0 1 45 841.89 L57.38 841.89 A8.99985 8.99985 -180 0 0 66.38 832.89 L66.38 823.89" class="st18"/>
			<text x="854.89" y="32.4" transform="rotate(-90) scale(-1,1)" class="st8" v:langID="1033"><v:paragraph/><v:tabList/>Load balanced<v:newlineChar/><tspan
						x="854.89" dy="1.2em" class="st19">By NATS queue</tspan></text>		</g>
		<g id="shape153-227" v:mID="153" v:groupContext="shape" transform="translate(-325.202,229.702) rotate(-90) scale(-1,1)">
			<title>Side brace.153</title>
			<desc>Load balanced By HAProxy</desc>
			<v:userDefs>
				<v:ud v:nameU="TxtW" v:val="VT0(0.55555555555556):29"/>
				<v:ud v:nameU="TxtA" v:val="VT0(1.5707963267949):32"/>
				<v:ud v:nameU="TxtAState" v:val="VT0(0):26"/>
				<v:ud v:nameU="TxtWState" v:val="VT0(0):26"/>
				<v:ud v:nameU="MaxRadius" v:val="VT0(0.25):1"/>
				<v:ud v:nameU="PosCH1" v:prompt="Constrains X position of Control Handle #1" v:val="VT0(0):26"/>
				<v:ud v:nameU="PosCH2" v:prompt="Constrains Y position of Control Handle #2" v:val="VT0(0):26"/>
				<v:ud v:nameU="Scale" v:val="VT0(1):26"/>
				<v:ud v:nameU="AntiScale" v:val="VT0(1):26"/>
				<v:ud v:nameU="visVersion" v:val="VT0(15):26"/>
				<v:ud v:nameU="TxtW" v:prompt="" v:val="VT0(1.6666666666667):29"/>
				<v:ud v:nameU="TxtWState" v:prompt="" v:val="VT0(2):26"/>
				<v:ud v:nameU="MaxRadius" v:prompt="" v:val="VT0(0.23046875337604):1"/>
			</v:userDefs>
			<v:textBlock v:margins="rect(4,4,4,4)"/>
			<v:textRect cx="33.1875" cy="910.89" width="120.01" height="36.8038" transform="rotate(90)"/>
			<path d="M0 823.89 L0 832.89 A8.99985 8.99985 -180 0 0 9 841.89 L24.19 841.89 A8.99985 8.99985 0 0 1 33.19 850.89 A8.99985
						 8.99985 0 0 1 42.19 841.89 L57.38 841.89 A8.99985 8.99985 -180 0 0 66.38 832.89 L66.38 823.89"
					class="st18"/>
			<text x="854.89" y="29.59" transform="rotate(-90) scale(-1,1)" class="st8" v:langID="1033"><v:paragraph/><v:tabList/>Load balanced<v:newlineChar/><tspan
						x="854.89" dy="1.2em" class="st19">By HAProxy</tspan></text>		</g>
		<g id="shape156-232" v:mID="156" v:groupContext="shape" transform="translate(359.187,-666.187)">
			<title>Sheet.156</title>
			<desc>Subscribe</desc>
			<v:textBlock v:margins="rect(4,4,4,4)"/>
			<v:textRect cx="31.5" cy="831.89" width="63" height="20"/>
			<rect x="0" y="821.89" width="63" height="20" class="st6"/>
			<text x="10.33" y="835.19" class="st14" v:langID="1033"><v:paragraph v:horizAlign="1"/><v:tabList/>Subscribe</text>		</g>
		<g id="shape160-235" v:mID="160" v:groupContext="shape" transform="translate(385.687,-144)">
			<title>Sheet.160</title>
			<rect x="0" y="744.64" width="152" height="97.25" class="st20"/>
		</g>
		<g id="shape157-237" v:mID="157" v:groupContext="shape" transform="translate(395.687,-213.25)">
			<title>Sheet.157</title>
			<desc>Node</desc>
			<v:textBlock v:margins="rect(4,4,4,4)"/>
			<v:textRect cx="31.5" cy="832.89" width="63" height="18"/>
			<rect x="0" y="823.89" width="63" height="18" class="st11"/>
			<text x="18.33" y="836.49" class="st8" v:langID="1033"><v:paragraph v:horizAlign="1"/><v:tabList/>Node</text>		</g>
		<g id="shape159-240" v:mID="159" v:groupContext="shape" transform="translate(395.687,-187.75)">
			<title>Sheet.159</title>
			<desc>Each node is an instance of a framework/business function ser...</desc>
			<v:textBlock v:margins="rect(4,4,4,4)" v:verticalAlign="0"/>
			<v:textRect cx="76" cy="831.89" width="152" height="20"/>
			<rect x="0" y="821.89" width="152" height="20" class="st6"/>
			<text x="4" y="835.79" class="st21" v:langID="1033"><v:paragraph/><v:tabList/>Each node is an instance of a <v:newlineChar/><tspan
						x="4" dy="1.2em" class="st19">framework/business function </tspan><tspan x="4" dy="1.2em" class="st19">service or API service in<v:newlineChar/></tspan><tspan
						x="4" dy="1.2em" class="st19">a docker container</tspan></text>		</g>
		<g id="shape162-246" v:mID="162" v:groupContext="shape" transform="translate(355.687,-721.71)">
			<title>Sheet.162</title>
			<ellipse cx="5.625" cy="836.265" rx="5.625" ry="5.625" class="st2"/>
		</g>
		<g id="shape163-248" v:mID="163" v:groupContext="shape" transform="translate(75.6875,-727.335)">
			<title>Sheet.163</title>
			<path d="M0 841.89 L280 841.89" class="st3"/>
		</g>
		<g id="shape164-251" v:mID="164" v:groupContext="shape" transform="translate(967.077,114.555) rotate(90)">
			<title>Sheet.164</title>
			<path d="M0 841.89 L55.52 841.89" class="st4"/>
		</g>
		<g id="shape165-254" v:mID="165" v:groupContext="shape" transform="translate(192.687,-666.187)">
			<title>Sheet.165</title>
			<ellipse cx="5.625" cy="836.265" rx="5.625" ry="5.625" class="st5"/>
		</g>
		<g id="shape166-256" v:mID="166" v:groupContext="shape" transform="translate(125.187,-671.812)">
			<title>Sheet.166</title>
			<path d="M0 841.89 L67.5 841.89" class="st4"/>
		</g>
		<g id="shape167-259" v:mID="167" v:groupContext="shape" transform="translate(83.8125,-725.062)">
			<title>Sheet.167</title>
			<desc>Subject 1</desc>
			<v:textBlock v:margins="rect(4,4,4,4)"/>
			<v:textRect cx="29.3486" cy="831.89" width="58.7" height="20"/>
			<rect x="0" y="821.89" width="58.6972" height="20" class="st6"/>
			<text x="4" y="835.49" class="st8" v:langID="1033"><v:paragraph/><v:tabList/>Subject <tspan class="st9">1</tspan></text>		</g>
		<g id="shape168-263" v:mID="168" v:groupContext="shape" transform="translate(133.5,-668.812)">
			<title>Sheet.168</title>
			<desc>Queue</desc>
			<v:textBlock v:margins="rect(4,4,4,4)"/>
			<v:textRect cx="23.625" cy="831.89" width="47.25" height="20"/>
			<rect x="0" y="821.89" width="47.25" height="20" class="st6"/>
			<text x="7.31" y="835.49" class="st8" v:langID="1033"><v:paragraph v:horizAlign="1"/><v:tabList/>Queue</text>		</g>
		<g id="shape169-266" v:mID="169" v:groupContext="shape" v:layerMember="0" transform="translate(203.937,-671.812)">
			<title>Dynamic connector.169</title>
			<path d="M5.16 841.89 L5.52 841.89 L256.5 841.89 L256.5 902.64" class="st12"/>
		</g>
		<g id="shape170-271" v:mID="170" v:groupContext="shape" transform="translate(967.121,442.985) rotate(88.9403)">
			<title>Sheet.170</title>
			<path d="M0 841.89 L56.24 841.89" class="st16"/>
		</g>
		<g id="shape171-274" v:mID="171" v:groupContext="shape" transform="translate(193.875,-320.812)">
			<title>Sheet.171</title>
			<ellipse cx="5.625" cy="836.265" rx="5.625" ry="5.625" class="st5"/>
		</g>
		<g id="shape172-276" v:mID="172" v:groupContext="shape" transform="translate(126.415,-327.108)">
			<title>Sheet.172</title>
			<path d="M0 841.89 L67.5 841.89" class="st16"/>
		</g>
		<g id="shape173-279" v:mID="173" v:groupContext="shape" transform="translate(131,-323.5)">
			<title>Sheet.173</title>
			<desc>Queue</desc>
			<v:textBlock v:margins="rect(4,4,4,4)"/>
			<v:textRect cx="23.625" cy="831.89" width="47.25" height="20"/>
			<rect x="0" y="821.89" width="47.25" height="20" class="st6"/>
			<text x="7.31" y="835.49" class="st10" v:langID="1033"><v:paragraph v:horizAlign="1"/><v:tabList/>Queue</text>		</g>
		<g id="shape174-282" v:mID="174" v:groupContext="shape" transform="translate(966.933,151.61) rotate(88.9403)">
			<title>Sheet.174</title>
			<path d="M0 841.89 L56.24 841.89" class="st16"/>
		</g>
		<g id="shape175-285" v:mID="175" v:groupContext="shape" transform="translate(193.687,-612.187)">
			<title>Sheet.175</title>
			<ellipse cx="5.625" cy="836.265" rx="5.625" ry="5.625" class="st5"/>
		</g>
		<g id="shape176-287" v:mID="176" v:groupContext="shape" transform="translate(126.228,-618.483)">
			<title>Sheet.176</title>
			<path d="M0 841.89 L67.5 841.89" class="st16"/>
		</g>
		<g id="shape177-290" v:mID="177" v:groupContext="shape" transform="translate(130.812,-614.875)">
			<title>Sheet.177</title>
			<desc>Queue</desc>
			<v:textBlock v:margins="rect(4,4,4,4)"/>
			<v:textRect cx="23.625" cy="831.89" width="47.25" height="20"/>
			<rect x="0" y="821.89" width="47.25" height="20" class="st6"/>
			<text x="7.31" y="835.49" class="st10" v:langID="1033"><v:paragraph v:horizAlign="1"/><v:tabList/>Queue</text>		</g>
		<g id="shape178-293" v:mID="178" v:groupContext="shape" transform="translate(375.75,-595.912)">
			<title>Sheet.178</title>
			<desc>Publish</desc>
			<v:textBlock v:margins="rect(4,4,4,4)"/>
			<v:textRect cx="23.625" cy="831.89" width="47.25" height="20"/>
			<rect x="0" y="821.89" width="47.25" height="20" class="st6"/>
			<text x="7.64" y="835.19" class="st14" v:langID="1033"><v:paragraph v:horizAlign="1"/><v:tabList/>Publish</text>		</g>
		<g id="shape179-296" v:mID="179" v:groupContext="shape" transform="translate(375.75,-572.456)">
			<title>Sheet.179</title>
			<desc>Publish</desc>
			<v:textBlock v:margins="rect(4,4,4,4)"/>
			<v:textRect cx="23.625" cy="831.89" width="47.25" height="20"/>
			<rect x="0" y="821.89" width="47.25" height="20" class="st6"/>
			<text x="7.64" y="835.19" class="st14" v:langID="1033"><v:paragraph v:horizAlign="1"/><v:tabList/>Publish</text>		</g>
		<g id="shape180-299" v:mID="180" v:groupContext="shape" transform="translate(375.75,-549)">
			<title>Sheet.180</title>
			<desc>Publish</desc>
			<v:textBlock v:margins="rect(4,4,4,4)"/>
			<v:textRect cx="23.625" cy="831.89" width="47.25" height="20"/>
			<rect x="0" y="821.89" width="47.25" height="20" class="st6"/>
			<text x="7.64" y="835.19" class="st14" v:langID="1033"><v:paragraph v:horizAlign="1"/><v:tabList/>Publish</text>		</g>
		<g id="shape185-302" v:mID="185" v:groupContext="shape" transform="translate(1462.89,85.8898) rotate(90)">
			<title>Sheet.185</title>
			<path d="M0 841.89 L612 841.89" class="st22"/>
		</g>
		<g id="shape186-305" v:mID="186" v:groupContext="shape" transform="translate(543.6,-753.3)">
			<title>Sheet.186</title>
			<desc>HAProxy</desc>
			<v:textBlock v:margins="rect(4,4,4,4)"/>
			<v:textRect cx="76" cy="831.89" width="152" height="20"/>
			<rect x="0" y="821.89" width="152" height="20" class="st6"/>
			<text x="54.43" y="835.49" class="st7" v:langID="1033"><v:paragraph v:horizAlign="1"/><v:tabList/>HAProxy</text>		</g>
		<g id="shape189-308" v:mID="189" v:groupContext="shape" transform="translate(620.649,1363.9) rotate(180)">
			<title>Sheet.189</title>
			<path d="M0 841.89 L122.86 841.89" class="st23"/>
		</g>
		<g id="shape190-314" v:mID="190" v:groupContext="shape" transform="translate(621,1386.78) rotate(180)">
			<title>Sheet.190</title>
			<path d="M0 841.89 L122.86 841.89" class="st23"/>
		</g>
		<g id="shape192-319" v:mID="192" v:groupContext="shape" transform="translate(428.937,-525.544)">
			<title>Sheet.192</title>
			<desc>1..n replicas</desc>
			<v:textBlock v:margins="rect(4,4,4,4)"/>
			<v:textRect cx="31.5" cy="831.89" width="63" height="20"/>
			<rect x="0" y="821.89" width="63" height="20" class="st6"/>
			<text x="4.74" y="835.19" class="st14" v:langID="1033"><v:paragraph v:horizAlign="1"/><v:tabList/>1..n replicas</text>		</g>
		<g id="shape193-322" v:mID="193" v:groupContext="shape" transform="translate(274.938,-472.5)">
			<title>Sheet.193</title>
			<desc>1..n replicas</desc>
			<v:textBlock v:margins="rect(4,4,4,4)"/>
			<v:textRect cx="31.5" cy="831.89" width="63" height="20"/>
			<rect x="0" y="821.89" width="63" height="20" class="st6"/>
			<text x="4.74" y="835.19" class="st14" v:langID="1033"><v:paragraph v:horizAlign="1"/><v:tabList/>1..n replicas</text>		</g>
		<g id="shape194-325" v:mID="194" v:groupContext="shape" transform="translate(667,-405.904)">
			<title>Cloud</title>
			<desc>External Consumers</desc>
			<v:userDefs>
				<v:ud v:nameU="solsh"/>
				<v:ud v:nameU="shapetype" v:val="VT0(1):26"/>
				<v:ud v:nameU="shapelook" v:val="VT0(2):26"/>
				<v:ud v:nameU="visVersion" v:val="VT0(15):26"/>
			</v:userDefs>
			<v:textBlock v:margins="rect(0,0,0,0)"/>
			<v:textRect cx="76" cy="807.335" width="152" height="69.1103"/>
			<path d="M56.46 782.29 A24.0589 17.7623 0 0 1 98.91 782.06 A17.6588 13.0372 0 0 1 129.28 786.37 A17.7595 13.1116 0 0
						 1 150.25 792.98 A13.3969 9.8907 0 0 1 143.13 804.98 A15.1292 11.1696 0 0 1 131.52 825.6 A27.2437 20.1136
						 0 0 1 93.59 835.97 A34.312 25.332 0 0 1 45.98 833.45 A18.8825 13.9407 0 0 1 12.76 822.22 A13.6446 10.0736
						 0 0 1 12.83 802.11 A11.6746 8.6192 0 1 1 22.25 786.34 A18.302 13.5121 0 0 1 56.46 782.29 Z" class="st25"/>
			<text x="48.57" y="802.53" class="st26" v:langID="1033"><v:paragraph v:horizAlign="1"/><v:tabList/>External <v:newlineChar/><tspan
						x="39.12" dy="1.2em" class="st19">Consumers</tspan></text>		</g>
		<g id="shape195-329" v:mID="195" v:groupContext="shape" transform="translate(667,1243.32) rotate(180)">
			<title>Sheet.195</title>
			<path d="M8.68 841.89 L9.04 841.89 L36.96 841.89" class="st27"/>
		</g>
	</g>
</svg>
